%TF.GenerationSoftware,KiCad,Pcbnew,10.0.3*%
%TF.CreationDate,2026-06-16T19:48:55-04:00*%
%TF.ProjectId,usb-to-serial-adapter,7573622d-746f-42d7-9365-7269616c2d61,rev?*%
%TF.SameCoordinates,Original*%
%TF.FileFunction,Copper,L1,Top*%
%TF.FilePolarity,Positive*%
%FSLAX46Y46*%
G04 Gerber Fmt 4.6, Leading zero omitted, Abs format (unit mm)*
G04 Created by KiCad (PCBNEW 10.0.3) date 2026-06-16 19:48:55*
%MOMM*%
%LPD*%
G01*
G04 APERTURE LIST*
G04 Aperture macros list*
%AMRoundRect*
0 Rectangle with rounded corners*
0 $1 Rounding radius*
0 $2 $3 $4 $5 $6 $7 $8 $9 X,Y pos of 4 corners*
0 Add a 4 corners polygon primitive as box body*
4,1,4,$2,$3,$4,$5,$6,$7,$8,$9,$2,$3,0*
0 Add four circle primitives for the rounded corners*
1,1,$1+$1,$2,$3*
1,1,$1+$1,$4,$5*
1,1,$1+$1,$6,$7*
1,1,$1+$1,$8,$9*
0 Add four rect primitives between the rounded corners*
20,1,$1+$1,$2,$3,$4,$5,0*
20,1,$1+$1,$4,$5,$6,$7,0*
20,1,$1+$1,$6,$7,$8,$9,0*
20,1,$1+$1,$8,$9,$2,$3,0*%
G04 Aperture macros list end*
%TA.AperFunction,HeatsinkPad*%
%ADD10R,2.600000X2.600000*%
%TD*%
%TA.AperFunction,SMDPad,CuDef*%
%ADD11RoundRect,0.062500X-0.062500X-0.362500X0.062500X-0.362500X0.062500X0.362500X-0.062500X0.362500X0*%
%TD*%
%TA.AperFunction,SMDPad,CuDef*%
%ADD12RoundRect,0.062500X-0.362500X-0.062500X0.362500X-0.062500X0.362500X0.062500X-0.362500X0.062500X0*%
%TD*%
%TA.AperFunction,SMDPad,CuDef*%
%ADD13RoundRect,0.135000X-0.135000X-0.185000X0.135000X-0.185000X0.135000X0.185000X-0.135000X0.185000X0*%
%TD*%
%TA.AperFunction,ComponentPad*%
%ADD14R,1.700000X1.700000*%
%TD*%
%TA.AperFunction,ComponentPad*%
%ADD15C,1.700000*%
%TD*%
%TA.AperFunction,SMDPad,CuDef*%
%ADD16RoundRect,0.100000X-0.100000X-0.575000X0.100000X-0.575000X0.100000X0.575000X-0.100000X0.575000X0*%
%TD*%
%TA.AperFunction,ComponentPad*%
%ADD17O,0.890000X1.550000*%
%TD*%
%TA.AperFunction,SMDPad,CuDef*%
%ADD18RoundRect,0.250000X-0.475000X-0.525000X0.475000X-0.525000X0.475000X0.525000X-0.475000X0.525000X0*%
%TD*%
%TA.AperFunction,ComponentPad*%
%ADD19O,1.250000X0.950000*%
%TD*%
%TA.AperFunction,SMDPad,CuDef*%
%ADD20RoundRect,0.250000X-0.500000X-0.525000X0.500000X-0.525000X0.500000X0.525000X-0.500000X0.525000X0*%
%TD*%
%TA.AperFunction,SMDPad,CuDef*%
%ADD21RoundRect,0.147500X-0.147500X-0.172500X0.147500X-0.172500X0.147500X0.172500X-0.147500X0.172500X0*%
%TD*%
%TA.AperFunction,SMDPad,CuDef*%
%ADD22RoundRect,0.250000X-0.250000X-0.475000X0.250000X-0.475000X0.250000X0.475000X-0.250000X0.475000X0*%
%TD*%
%TA.AperFunction,SMDPad,CuDef*%
%ADD23RoundRect,0.140000X-0.140000X-0.170000X0.140000X-0.170000X0.140000X0.170000X-0.140000X0.170000X0*%
%TD*%
%TA.AperFunction,ViaPad*%
%ADD24C,0.600000*%
%TD*%
%TA.AperFunction,Conductor*%
%ADD25C,0.200000*%
%TD*%
G04 APERTURE END LIST*
D10*
%TO.P,U1,21,GND_21*%
%TO.N,Net-(J1-GND)*%
X133150000Y-75650000D03*
D11*
%TO.P,U1,20,~{TXT}/GPIO.2_20*%
%TO.N,unconnected-(U1-~{TXT}{slash}GPIO.2-Pad20)*%
X132150000Y-73725000D03*
%TO.P,U1,19,~{RXT}/GPIO.3_19*%
%TO.N,unconnected-(U1-~{RXT}{slash}GPIO.3-Pad19)*%
X132650000Y-73725000D03*
%TO.P,U1,18,TXD_18*%
%TO.N,Net-(J2-Pin_4)*%
X133150000Y-73725000D03*
%TO.P,U1,17,RXD_17*%
%TO.N,Net-(J2-Pin_5)*%
X133650000Y-73725000D03*
%TO.P,U1,16,~{RTS}_16*%
%TO.N,unconnected-(U1-~{RTS}-Pad16)*%
X134150000Y-73725000D03*
D12*
%TO.P,U1,15,~{CTS}_15*%
%TO.N,Net-(J2-Pin_2)*%
X135075000Y-74650000D03*
%TO.P,U1,14,SUSPEND_14*%
%TO.N,unconnected-(U1-SUSPEND-Pad14)*%
X135075000Y-75150000D03*
%TO.P,U1,13,~{WAKEUP}_13*%
%TO.N,unconnected-(U1-~{WAKEUP}-Pad13)*%
X135075000Y-75650000D03*
%TO.P,U1,12,GND_12*%
%TO.N,Net-(J1-GND)*%
X135075000Y-76150000D03*
%TO.P,U1,11,~{SUSPEND}_11*%
%TO.N,unconnected-(U1-~{SUSPEND}-Pad11)*%
X135075000Y-76650000D03*
D11*
%TO.P,U1,10,NC_10*%
%TO.N,unconnected-(U1-NC-Pad10)*%
X134150000Y-77575000D03*
%TO.P,U1,9,~{RST}_9*%
%TO.N,Net-(U1-~{RST})*%
X133650000Y-77575000D03*
%TO.P,U1,8,VBUS_8*%
%TO.N,VCC*%
X133150000Y-77575000D03*
%TO.P,U1,7,VREGIN_7*%
X132650000Y-77575000D03*
%TO.P,U1,6,VDD_6*%
%TO.N,Net-(J1-VBUS)*%
X132150000Y-77575000D03*
D12*
%TO.P,U1,5,D-_5*%
%TO.N,Net-(J1-D-)*%
X131225000Y-76650000D03*
%TO.P,U1,4,D+_4*%
%TO.N,Net-(J1-D+)*%
X131225000Y-76150000D03*
%TO.P,U1,3,GND_3*%
%TO.N,Net-(J1-GND)*%
X131225000Y-75650000D03*
%TO.P,U1,2,CLK/GPIO.0_2*%
%TO.N,Net-(J2-Pin_6)*%
X131225000Y-75150000D03*
%TO.P,U1,1,RS485/GPIO.1_1*%
%TO.N,unconnected-(U1-RS485{slash}GPIO.1-Pad1)*%
X131225000Y-74650000D03*
%TD*%
D13*
%TO.P,R2,1*%
%TO.N,VCC*%
X165480000Y-80000000D03*
%TO.P,R2,2*%
%TO.N,Net-(U1-~{RST})*%
X166500000Y-80000000D03*
%TD*%
%TO.P,R1,1*%
%TO.N,VCC*%
X85000000Y-100000000D03*
%TO.P,R1,2*%
%TO.N,Net-(D1-K)*%
X86020000Y-100000000D03*
%TD*%
D14*
%TO.P,J2,1,Pin_1_1*%
%TO.N,GND*%
X173500000Y-76920000D03*
D15*
%TO.P,J2,2,Pin_2_2*%
%TO.N,Net-(J2-Pin_2)*%
X173500000Y-79460000D03*
%TO.P,J2,3,Pin_3_3*%
%TO.N,VCC*%
X173500000Y-82000000D03*
%TO.P,J2,4,Pin_4_4*%
%TO.N,Net-(J2-Pin_4)*%
X173500000Y-84540000D03*
%TO.P,J2,5,Pin_5_5*%
%TO.N,Net-(J2-Pin_5)*%
X173500000Y-87080000D03*
%TO.P,J2,6,Pin_6_6*%
%TO.N,Net-(J2-Pin_6)*%
X173500000Y-89620000D03*
%TD*%
D16*
%TO.P,J1,1,VBUS_1*%
%TO.N,Net-(J1-VBUS)*%
X85000000Y-76500000D03*
%TO.P,J1,2,D-_2*%
%TO.N,Net-(J1-D-)*%
X85650000Y-76500000D03*
%TO.P,J1,3,D+_3*%
%TO.N,Net-(J1-D+)*%
X86300000Y-76500000D03*
%TO.P,J1,4,ID_4*%
%TO.N,GND*%
X86950000Y-76500000D03*
%TO.P,J1,5,GND_5*%
%TO.N,Net-(J1-GND)*%
X87600000Y-76500000D03*
D17*
%TO.P,J1,SH,Shield_SH*%
%TO.N,GND*%
X82800000Y-79200000D03*
D18*
X83275000Y-79200000D03*
D19*
X83800000Y-76500000D03*
D20*
X85300000Y-79200000D03*
X87300000Y-79200000D03*
D19*
X88800000Y-76500000D03*
D18*
X89325000Y-79200000D03*
D17*
X89800000Y-79200000D03*
%TD*%
D21*
%TO.P,D1,1,K_1*%
%TO.N,Net-(D1-K)*%
X86015000Y-106000000D03*
%TO.P,D1,2,A_2*%
%TO.N,GND*%
X86985000Y-106000000D03*
%TD*%
D22*
%TO.P,C3,1*%
%TO.N,VCC*%
X137550000Y-89500000D03*
%TO.P,C3,2*%
%TO.N,GND*%
X139450000Y-89500000D03*
%TD*%
D23*
%TO.P,C2,1*%
%TO.N,VCC*%
X133540000Y-89500000D03*
%TO.P,C2,2*%
%TO.N,GND*%
X134500000Y-89500000D03*
%TD*%
%TO.P,C1,1*%
%TO.N,VCC*%
X129000000Y-89500000D03*
%TO.P,C1,2*%
%TO.N,GND*%
X129960000Y-89500000D03*
%TD*%
D24*
%TO.N,Net-(J1-GND)*%
X115348530Y-74151470D03*
X87500000Y-72500000D03*
%TO.N,Net-(J1-D+)*%
X88500000Y-69500000D03*
X116789224Y-75592165D03*
%TO.N,Net-(J1-D-)*%
X86000000Y-68500000D03*
X116924265Y-76575735D03*
%TO.N,Net-(J2-Pin_4)*%
X133000000Y-64500000D03*
X144000000Y-64500000D03*
%TD*%
%TO.N,GND*%
D25*
X173500000Y-76920000D02*
X174650000Y-78070000D01*
X173976346Y-83150000D02*
X145800000Y-83150000D01*
X145800000Y-83150000D02*
X139450000Y-89500000D01*
X174650000Y-78070000D02*
X174650000Y-82476346D01*
X174650000Y-82476346D02*
X173976346Y-83150000D01*
%TO.N,Net-(J1-GND)*%
X133150000Y-75650000D02*
X131225000Y-75650000D01*
X135075000Y-76150000D02*
X133650000Y-76150000D01*
X133650000Y-76150000D02*
X133150000Y-75650000D01*
%TO.N,GND*%
X88800000Y-76500000D02*
X88800000Y-77175000D01*
X88800000Y-77175000D02*
X88500000Y-77475000D01*
X86950000Y-77174999D02*
X86950000Y-76500000D01*
X88500000Y-77475000D02*
X87250001Y-77475000D01*
X87250001Y-77475000D02*
X86950000Y-77174999D01*
%TO.N,VCC*%
X133150000Y-77575000D02*
X132650000Y-77575000D01*
X129000000Y-89500000D02*
X129610000Y-88890000D01*
X129610000Y-88890000D02*
X132930000Y-88890000D01*
X132930000Y-88890000D02*
X133540000Y-89500000D01*
X133150000Y-78080071D02*
X133150000Y-77575000D01*
X133150000Y-78080071D02*
X135069929Y-80000000D01*
X135069929Y-80000000D02*
X165480000Y-80000000D01*
%TO.N,Net-(U1-~{RST})*%
X133650000Y-77575000D02*
X133650000Y-78014386D01*
X134364386Y-78300000D02*
X134575000Y-78089386D01*
X133650000Y-78014386D02*
X133935614Y-78300000D01*
X133935614Y-78300000D02*
X134364386Y-78300000D01*
X134575000Y-78089386D02*
X134575000Y-77575000D01*
%TO.N,Net-(J1-GND)*%
X87500000Y-72500000D02*
X87600000Y-72600000D01*
X117695588Y-75650000D02*
X116197058Y-74151470D01*
X131225000Y-75650000D02*
X117695588Y-75650000D01*
X116197058Y-74151470D02*
X115348530Y-74151470D01*
X87600000Y-72600000D02*
X87600000Y-76500000D01*
%TO.N,Net-(J1-D+)*%
X131225000Y-76150000D02*
X117347059Y-76150000D01*
X88500000Y-69500000D02*
X86300000Y-71700000D01*
X117347059Y-76150000D02*
X116789224Y-75592165D01*
X86300000Y-71700000D02*
X86300000Y-76500000D01*
%TO.N,Net-(J1-D-)*%
X131225000Y-76650000D02*
X116998530Y-76650000D01*
X116998530Y-76650000D02*
X116924265Y-76575735D01*
X85650000Y-68850000D02*
X85650000Y-76500000D01*
X86000000Y-68500000D02*
X85650000Y-68850000D01*
%TO.N,Net-(J1-VBUS)*%
X107000000Y-67500000D02*
X85000000Y-67500000D01*
X117075000Y-77575000D02*
X107000000Y-67500000D01*
X132150000Y-77575000D02*
X117075000Y-77575000D01*
X85000000Y-67500000D02*
X85000000Y-76500000D01*
%TO.N,Net-(U1-~{RST})*%
X166500000Y-80000000D02*
X164075000Y-77575000D01*
X164075000Y-77575000D02*
X134575000Y-77575000D01*
%TO.N,VCC*%
X165480000Y-80000000D02*
X147050000Y-80000000D01*
X147050000Y-80000000D02*
X137550000Y-89500000D01*
X133150000Y-77575000D02*
X133150000Y-89110000D01*
X133150000Y-89110000D02*
X133540000Y-89500000D01*
%TO.N,Net-(J2-Pin_2)*%
X173500000Y-79460000D02*
X168690000Y-74650000D01*
X168690000Y-74650000D02*
X135075000Y-74650000D01*
%TO.N,VCC*%
X173500000Y-82000000D02*
X167480000Y-82000000D01*
X167480000Y-82000000D02*
X165480000Y-80000000D01*
%TO.N,Net-(J2-Pin_4)*%
X187500000Y-65000000D02*
X187000000Y-64500000D01*
X174540000Y-83500000D02*
X187500000Y-83500000D01*
X187000000Y-64500000D02*
X144000000Y-64500000D01*
X173500000Y-84540000D02*
X174540000Y-83500000D01*
X187500000Y-83500000D02*
X187500000Y-65000000D01*
X133000000Y-64500000D02*
X133150000Y-64650000D01*
X133150000Y-64650000D02*
X133150000Y-73725000D01*
%TO.N,Net-(J2-Pin_5)*%
X173500000Y-87080000D02*
X173580000Y-87000000D01*
X173580000Y-87000000D02*
X190000000Y-87000000D01*
X190000000Y-87000000D02*
X190000000Y-62500000D01*
X144435614Y-62500000D02*
X133650000Y-73285614D01*
X190000000Y-62500000D02*
X144435614Y-62500000D01*
X133650000Y-73285614D02*
X133650000Y-73725000D01*
%TO.N,Net-(J2-Pin_6)*%
X191620000Y-89620000D02*
X192000000Y-90000000D01*
X192000000Y-60500000D02*
X133500000Y-60500000D01*
X173500000Y-89620000D02*
X191620000Y-89620000D01*
X133500000Y-60500000D02*
X124500000Y-69500000D01*
X130150000Y-75150000D02*
X131225000Y-75150000D01*
X192000000Y-90000000D02*
X192000000Y-60500000D01*
X124500000Y-69500000D02*
X130150000Y-75150000D01*
%TO.N,VCC*%
X85000000Y-100000000D02*
X95500000Y-89500000D01*
X95500000Y-89500000D02*
X129000000Y-89500000D01*
%TO.N,Net-(D1-K)*%
X86015000Y-106000000D02*
X86015000Y-100005000D01*
X86015000Y-100005000D02*
X86020000Y-100000000D01*
%TD*%
%TA.AperFunction,Conductor*%
%TO.N,GND*%
G36*
X143177651Y-64709711D02*
G01*
X143233584Y-64751583D01*
X143248878Y-64778440D01*
X143290604Y-64879175D01*
X143290609Y-64879185D01*
X143378210Y-65010288D01*
X143378213Y-65010292D01*
X143489707Y-65121786D01*
X143489711Y-65121789D01*
X143620814Y-65209390D01*
X143620827Y-65209397D01*
X143715799Y-65248735D01*
X143766503Y-65269737D01*
X143919132Y-65300097D01*
X143921153Y-65300499D01*
X143921156Y-65300500D01*
X143921158Y-65300500D01*
X144078844Y-65300500D01*
X144078845Y-65300499D01*
X144233497Y-65269737D01*
X144379179Y-65209394D01*
X144425384Y-65178521D01*
X144510875Y-65121398D01*
X144577553Y-65100520D01*
X144579766Y-65100500D01*
X186699903Y-65100500D01*
X186729343Y-65109144D01*
X186759330Y-65115668D01*
X186764345Y-65119422D01*
X186766942Y-65120185D01*
X186787584Y-65136819D01*
X186863181Y-65212416D01*
X186896666Y-65273739D01*
X186899500Y-65300097D01*
X186899500Y-82775500D01*
X186879815Y-82842539D01*
X186827011Y-82888294D01*
X186775500Y-82899500D01*
X174759005Y-82899500D01*
X174691966Y-82879815D01*
X174646211Y-82827011D01*
X174636267Y-82757853D01*
X174653277Y-82710710D01*
X174655037Y-82707834D01*
X174655051Y-82707816D01*
X174751557Y-82518412D01*
X174817246Y-82316243D01*
X174850500Y-82106287D01*
X174850500Y-81893713D01*
X174817246Y-81683757D01*
X174751557Y-81481588D01*
X174655051Y-81292184D01*
X174655049Y-81292181D01*
X174655048Y-81292179D01*
X174530109Y-81120213D01*
X174379786Y-80969890D01*
X174207820Y-80844951D01*
X174207115Y-80844591D01*
X174199054Y-80840485D01*
X174148259Y-80792512D01*
X174131463Y-80724692D01*
X174153999Y-80658556D01*
X174199054Y-80619515D01*
X174207816Y-80615051D01*
X174284170Y-80559577D01*
X174379786Y-80490109D01*
X174379788Y-80490106D01*
X174379792Y-80490104D01*
X174530104Y-80339792D01*
X174530106Y-80339788D01*
X174530109Y-80339786D01*
X174655048Y-80167820D01*
X174655047Y-80167820D01*
X174655051Y-80167816D01*
X174751557Y-79978412D01*
X174817246Y-79776243D01*
X174850500Y-79566287D01*
X174850500Y-79353713D01*
X174817246Y-79143757D01*
X174751557Y-78941588D01*
X174655051Y-78752184D01*
X174655049Y-78752181D01*
X174655048Y-78752179D01*
X174530109Y-78580213D01*
X174416181Y-78466285D01*
X174382696Y-78404962D01*
X174387680Y-78335270D01*
X174429552Y-78279337D01*
X174460529Y-78262422D01*
X174592086Y-78213354D01*
X174592093Y-78213350D01*
X174707187Y-78127190D01*
X174707190Y-78127187D01*
X174793350Y-78012093D01*
X174793354Y-78012086D01*
X174843596Y-77877379D01*
X174843598Y-77877372D01*
X174849999Y-77817844D01*
X174850000Y-77817827D01*
X174850000Y-77170000D01*
X173933012Y-77170000D01*
X173965925Y-77112993D01*
X174000000Y-76985826D01*
X174000000Y-76854174D01*
X173965925Y-76727007D01*
X173933012Y-76670000D01*
X174850000Y-76670000D01*
X174850000Y-76022172D01*
X174849999Y-76022155D01*
X174843598Y-75962627D01*
X174843596Y-75962620D01*
X174793354Y-75827913D01*
X174793350Y-75827906D01*
X174707190Y-75712812D01*
X174707187Y-75712809D01*
X174592093Y-75626649D01*
X174592086Y-75626645D01*
X174457379Y-75576403D01*
X174457372Y-75576401D01*
X174397844Y-75570000D01*
X173750000Y-75570000D01*
X173750000Y-76486988D01*
X173692993Y-76454075D01*
X173565826Y-76420000D01*
X173434174Y-76420000D01*
X173307007Y-76454075D01*
X173250000Y-76486988D01*
X173250000Y-75570000D01*
X172602155Y-75570000D01*
X172542627Y-75576401D01*
X172542620Y-75576403D01*
X172407913Y-75626645D01*
X172407906Y-75626649D01*
X172292812Y-75712809D01*
X172292809Y-75712812D01*
X172206649Y-75827906D01*
X172206645Y-75827913D01*
X172156403Y-75962620D01*
X172156401Y-75962627D01*
X172150000Y-76022155D01*
X172150000Y-76670000D01*
X173066988Y-76670000D01*
X173034075Y-76727007D01*
X173000000Y-76854174D01*
X173000000Y-76985826D01*
X173034075Y-77112993D01*
X173066988Y-77170000D01*
X172110597Y-77170000D01*
X172043558Y-77150315D01*
X172022916Y-77133681D01*
X169177590Y-74288355D01*
X169177588Y-74288352D01*
X169058717Y-74169481D01*
X169058716Y-74169480D01*
X168971904Y-74119360D01*
X168971904Y-74119359D01*
X168971900Y-74119358D01*
X168921785Y-74090423D01*
X168769057Y-74049499D01*
X168610943Y-74049499D01*
X168603347Y-74049499D01*
X168603331Y-74049500D01*
X135634508Y-74049500D01*
X135587058Y-74040062D01*
X135584475Y-74038992D01*
X135584470Y-74038990D01*
X135474410Y-74024501D01*
X135474407Y-74024500D01*
X135474401Y-74024500D01*
X135474394Y-74024500D01*
X134899499Y-74024500D01*
X134832460Y-74004815D01*
X134786705Y-73952011D01*
X134775499Y-73900500D01*
X134775499Y-73325596D01*
X134761011Y-73215536D01*
X134761009Y-73215529D01*
X134761009Y-73215528D01*
X134736571Y-73156530D01*
X134729102Y-73087060D01*
X134760377Y-73024581D01*
X134763423Y-73021424D01*
X143046638Y-64738210D01*
X143107959Y-64704727D01*
X143177651Y-64709711D01*
G37*
%TD.AperFunction*%
%TA.AperFunction,Conductor*%
G36*
X88494225Y-76266866D02*
G01*
X88416866Y-76344225D01*
X88375000Y-76445299D01*
X88375000Y-76554701D01*
X88416866Y-76655775D01*
X88494225Y-76733134D01*
X88534943Y-76750000D01*
X88424500Y-76750000D01*
X88357461Y-76730315D01*
X88311706Y-76677511D01*
X88300500Y-76626000D01*
X88300499Y-76374000D01*
X88320183Y-76306961D01*
X88372987Y-76261206D01*
X88424499Y-76250000D01*
X88534943Y-76250000D01*
X88494225Y-76266866D01*
G37*
%TD.AperFunction*%
%TA.AperFunction,Conductor*%
G36*
X194516622Y-57034958D02*
G01*
X194562377Y-57087762D01*
X194573583Y-57139273D01*
X194573583Y-118941616D01*
X194553898Y-119008655D01*
X194501094Y-119054410D01*
X194449583Y-119065616D01*
X70201762Y-119065616D01*
X70134723Y-119045931D01*
X70088968Y-118993127D01*
X70077762Y-118941616D01*
X70077762Y-80474999D01*
X83525000Y-80474999D01*
X83799972Y-80474999D01*
X83799986Y-80474998D01*
X83902697Y-80464505D01*
X84069119Y-80409358D01*
X84069130Y-80409353D01*
X84209903Y-80322523D01*
X84277295Y-80304082D01*
X84340097Y-80322523D01*
X84480869Y-80409353D01*
X84480880Y-80409358D01*
X84647302Y-80464505D01*
X84647309Y-80464506D01*
X84750019Y-80474999D01*
X85049999Y-80474999D01*
X85550000Y-80474999D01*
X85849972Y-80474999D01*
X85849986Y-80474998D01*
X85952697Y-80464505D01*
X86119119Y-80409358D01*
X86119124Y-80409356D01*
X86234903Y-80337943D01*
X86302295Y-80319503D01*
X86365097Y-80337943D01*
X86480875Y-80409356D01*
X86480880Y-80409358D01*
X86647302Y-80464505D01*
X86647309Y-80464506D01*
X86750019Y-80474999D01*
X87049999Y-80474999D01*
X87550000Y-80474999D01*
X87849972Y-80474999D01*
X87849986Y-80474998D01*
X87952697Y-80464505D01*
X88119119Y-80409358D01*
X88119130Y-80409353D01*
X88259903Y-80322523D01*
X88327295Y-80304082D01*
X88390097Y-80322523D01*
X88530869Y-80409353D01*
X88530880Y-80409358D01*
X88697302Y-80464505D01*
X88697309Y-80464506D01*
X88800019Y-80474999D01*
X89074999Y-80474999D01*
X89075000Y-80474998D01*
X89075000Y-79450000D01*
X87550000Y-79450000D01*
X87550000Y-80474999D01*
X87049999Y-80474999D01*
X87050000Y-80474998D01*
X87050000Y-79450000D01*
X85550000Y-79450000D01*
X85550000Y-80474999D01*
X85049999Y-80474999D01*
X85050000Y-80474998D01*
X85050000Y-79450000D01*
X83525000Y-79450000D01*
X83525000Y-80474999D01*
X70077762Y-80474999D01*
X70077762Y-78776921D01*
X81855000Y-78776921D01*
X81855000Y-78950000D01*
X82550000Y-78950000D01*
X82550000Y-79450000D01*
X81855000Y-79450000D01*
X81855000Y-79623078D01*
X81891314Y-79805638D01*
X81891316Y-79805646D01*
X81962550Y-79977622D01*
X81962555Y-79977631D01*
X82065970Y-80132401D01*
X82065973Y-80132405D01*
X82197594Y-80264026D01*
X82197598Y-80264029D01*
X82352368Y-80367444D01*
X82352381Y-80367451D01*
X82524350Y-80438682D01*
X82524355Y-80438683D01*
X82550000Y-80443784D01*
X82550000Y-79574728D01*
X82588060Y-79666614D01*
X82658386Y-79736940D01*
X82750272Y-79775000D01*
X82849728Y-79775000D01*
X82941614Y-79736940D01*
X83011940Y-79666614D01*
X83050000Y-79574728D01*
X83050000Y-78950000D01*
X83525000Y-78950000D01*
X85050000Y-78950000D01*
X85550000Y-78950000D01*
X87050000Y-78950000D01*
X87550000Y-78950000D01*
X89075000Y-78950000D01*
X89075000Y-78825272D01*
X89550000Y-78825272D01*
X89550000Y-79574728D01*
X89588060Y-79666614D01*
X89658386Y-79736940D01*
X89750272Y-79775000D01*
X89849728Y-79775000D01*
X89941614Y-79736940D01*
X90011940Y-79666614D01*
X90050000Y-79574728D01*
X90050000Y-80443783D01*
X90075644Y-80438683D01*
X90075649Y-80438682D01*
X90247618Y-80367451D01*
X90247631Y-80367444D01*
X90402401Y-80264029D01*
X90402405Y-80264026D01*
X90534026Y-80132405D01*
X90534029Y-80132401D01*
X90637444Y-79977631D01*
X90637449Y-79977622D01*
X90708683Y-79805646D01*
X90708685Y-79805638D01*
X90744999Y-79623078D01*
X90745000Y-79623076D01*
X90745000Y-79450000D01*
X90050000Y-79450000D01*
X90050000Y-78950000D01*
X90745000Y-78950000D01*
X90745000Y-78776923D01*
X90744999Y-78776921D01*
X90708685Y-78594361D01*
X90708683Y-78594353D01*
X90637449Y-78422377D01*
X90637444Y-78422368D01*
X90534029Y-78267598D01*
X90534026Y-78267594D01*
X90402405Y-78135973D01*
X90402401Y-78135970D01*
X90247631Y-78032555D01*
X90247622Y-78032550D01*
X90075648Y-77961317D01*
X90050000Y-77956214D01*
X90050000Y-78825272D01*
X90011940Y-78733386D01*
X89941614Y-78663060D01*
X89849728Y-78625000D01*
X89750272Y-78625000D01*
X89658386Y-78663060D01*
X89588060Y-78733386D01*
X89550000Y-78825272D01*
X89075000Y-78825272D01*
X89075000Y-77925000D01*
X88800029Y-77925000D01*
X88800012Y-77925001D01*
X88697302Y-77935494D01*
X88530880Y-77990641D01*
X88530875Y-77990643D01*
X88390097Y-78077477D01*
X88322704Y-78095917D01*
X88259903Y-78077477D01*
X88119124Y-77990643D01*
X88119119Y-77990641D01*
X87952697Y-77935494D01*
X87952690Y-77935493D01*
X87849986Y-77925000D01*
X87550000Y-77925000D01*
X87550000Y-78950000D01*
X87050000Y-78950000D01*
X87050000Y-77925000D01*
X86750028Y-77925000D01*
X86750012Y-77925001D01*
X86647302Y-77935494D01*
X86480880Y-77990641D01*
X86480871Y-77990645D01*
X86365096Y-78062056D01*
X86297704Y-78080496D01*
X86234904Y-78062056D01*
X86119128Y-77990645D01*
X86119119Y-77990641D01*
X85952697Y-77935494D01*
X85952690Y-77935493D01*
X85849986Y-77925000D01*
X85550000Y-77925000D01*
X85550000Y-78950000D01*
X85050000Y-78950000D01*
X85050000Y-77925000D01*
X84750028Y-77925000D01*
X84750012Y-77925001D01*
X84647302Y-77935494D01*
X84480880Y-77990641D01*
X84480875Y-77990643D01*
X84340097Y-78077477D01*
X84272704Y-78095917D01*
X84209903Y-78077477D01*
X84069124Y-77990643D01*
X84069119Y-77990641D01*
X83902697Y-77935494D01*
X83902690Y-77935493D01*
X83799986Y-77925000D01*
X83525000Y-77925000D01*
X83525000Y-78950000D01*
X83050000Y-78950000D01*
X83050000Y-78825272D01*
X83011940Y-78733386D01*
X82941614Y-78663060D01*
X82849728Y-78625000D01*
X82750272Y-78625000D01*
X82658386Y-78663060D01*
X82588060Y-78733386D01*
X82550000Y-78825272D01*
X82550000Y-77956214D01*
X82524351Y-77961317D01*
X82352377Y-78032550D01*
X82352368Y-78032555D01*
X82197598Y-78135970D01*
X82197594Y-78135973D01*
X82065973Y-78267594D01*
X82065970Y-78267598D01*
X81962555Y-78422368D01*
X81962550Y-78422377D01*
X81891316Y-78594353D01*
X81891314Y-78594361D01*
X81855000Y-78776921D01*
X70077762Y-78776921D01*
X70077762Y-76250000D01*
X82705626Y-76250000D01*
X83534943Y-76250000D01*
X83494225Y-76266866D01*
X83416866Y-76344225D01*
X83375000Y-76445299D01*
X83375000Y-76554701D01*
X83416866Y-76655775D01*
X83494225Y-76733134D01*
X83534943Y-76750000D01*
X82705626Y-76750000D01*
X82712466Y-76784389D01*
X82712468Y-76784397D01*
X82785964Y-76961833D01*
X82785969Y-76961842D01*
X82892667Y-77121526D01*
X82892670Y-77121530D01*
X83028469Y-77257329D01*
X83028473Y-77257332D01*
X83188157Y-77364030D01*
X83188166Y-77364035D01*
X83365602Y-77437531D01*
X83365610Y-77437533D01*
X83549999Y-77474210D01*
X83550000Y-77474210D01*
X83550000Y-76756236D01*
X83595299Y-76775000D01*
X84004701Y-76775000D01*
X84050000Y-76756236D01*
X84050000Y-77474210D01*
X84234389Y-77437533D01*
X84234393Y-77437532D01*
X84288289Y-77415208D01*
X84357759Y-77407739D01*
X84420238Y-77439013D01*
X84434119Y-77454282D01*
X84471718Y-77503282D01*
X84597159Y-77599536D01*
X84743238Y-77660044D01*
X84860639Y-77675500D01*
X85139360Y-77675499D01*
X85139361Y-77675499D01*
X85151594Y-77673888D01*
X85256762Y-77660044D01*
X85277545Y-77651434D01*
X85298817Y-77649147D01*
X85319037Y-77642138D01*
X85332868Y-77645486D01*
X85347014Y-77643965D01*
X85372453Y-77651434D01*
X85393238Y-77660044D01*
X85510639Y-77675500D01*
X85789360Y-77675499D01*
X85789361Y-77675499D01*
X85801594Y-77673888D01*
X85906762Y-77660044D01*
X85927545Y-77651434D01*
X85997014Y-77643965D01*
X86022453Y-77651434D01*
X86043238Y-77660044D01*
X86160639Y-77675500D01*
X86439360Y-77675499D01*
X86439361Y-77675499D01*
X86453018Y-77673701D01*
X86556762Y-77660044D01*
X86578200Y-77651163D01*
X86647668Y-77643694D01*
X86673106Y-77651163D01*
X86693365Y-77659554D01*
X86693377Y-77659558D01*
X86749998Y-77667011D01*
X86750000Y-77667010D01*
X86750000Y-77624499D01*
X86758627Y-77595118D01*
X86765108Y-77565181D01*
X86768625Y-77561068D01*
X86769685Y-77557460D01*
X86786231Y-77536905D01*
X86792010Y-77531114D01*
X86828282Y-77503282D01*
X86856539Y-77466455D01*
X86862231Y-77460753D01*
X86886089Y-77447694D01*
X86908051Y-77431658D01*
X86916285Y-77431167D01*
X86923521Y-77427207D01*
X86950650Y-77429120D01*
X86977797Y-77427503D01*
X86984988Y-77431541D01*
X86993217Y-77432122D01*
X87015003Y-77448396D01*
X87038718Y-77461714D01*
X87048368Y-77472851D01*
X87071718Y-77503282D01*
X87101485Y-77526123D01*
X87142688Y-77582548D01*
X87150000Y-77624499D01*
X87150000Y-77667010D01*
X87206631Y-77659555D01*
X87226887Y-77651165D01*
X87235850Y-77650200D01*
X87243602Y-77645595D01*
X87270046Y-77646522D01*
X87296356Y-77643693D01*
X87310872Y-77647955D01*
X87313429Y-77648045D01*
X87315082Y-77649191D01*
X87321797Y-77651163D01*
X87321802Y-77651165D01*
X87343238Y-77660044D01*
X87460639Y-77675500D01*
X87739360Y-77675499D01*
X87739363Y-77675499D01*
X87856753Y-77660046D01*
X87856757Y-77660044D01*
X87856762Y-77660044D01*
X88002841Y-77599536D01*
X88128282Y-77503282D01*
X88165881Y-77454281D01*
X88222306Y-77413080D01*
X88292052Y-77408925D01*
X88311707Y-77415208D01*
X88365598Y-77437530D01*
X88365610Y-77437533D01*
X88549999Y-77474210D01*
X88550000Y-77474210D01*
X88550000Y-76756236D01*
X88595299Y-76775000D01*
X89004701Y-76775000D01*
X89050000Y-76756236D01*
X89050000Y-77474210D01*
X89234389Y-77437533D01*
X89234397Y-77437531D01*
X89411833Y-77364035D01*
X89411842Y-77364030D01*
X89571526Y-77257332D01*
X89571530Y-77257329D01*
X89707329Y-77121530D01*
X89707332Y-77121526D01*
X89814030Y-76961842D01*
X89814035Y-76961833D01*
X89887531Y-76784397D01*
X89887533Y-76784389D01*
X89894374Y-76750000D01*
X89065057Y-76750000D01*
X89105775Y-76733134D01*
X89183134Y-76655775D01*
X89225000Y-76554701D01*
X89225000Y-76445299D01*
X89183134Y-76344225D01*
X89105775Y-76266866D01*
X89065057Y-76250000D01*
X89894374Y-76250000D01*
X89887533Y-76215610D01*
X89887531Y-76215602D01*
X89814035Y-76038166D01*
X89814030Y-76038157D01*
X89707332Y-75878473D01*
X89707329Y-75878469D01*
X89571530Y-75742670D01*
X89571526Y-75742667D01*
X89411842Y-75635969D01*
X89411833Y-75635964D01*
X89234397Y-75562468D01*
X89234389Y-75562466D01*
X89050000Y-75525788D01*
X89050000Y-76243763D01*
X89004701Y-76225000D01*
X88595299Y-76225000D01*
X88550000Y-76243763D01*
X88550000Y-75525789D01*
X88549999Y-75525788D01*
X88365610Y-75562466D01*
X88360498Y-75564017D01*
X88290631Y-75564642D01*
X88231518Y-75527395D01*
X88201925Y-75464102D01*
X88200500Y-75445357D01*
X88200500Y-72925316D01*
X88209939Y-72877864D01*
X88261537Y-72753294D01*
X88269737Y-72733497D01*
X88300500Y-72578842D01*
X88300500Y-72421158D01*
X88300500Y-72421155D01*
X88300499Y-72421153D01*
X88269737Y-72266503D01*
X88269735Y-72266498D01*
X88209397Y-72120827D01*
X88209390Y-72120814D01*
X88121789Y-71989711D01*
X88121786Y-71989707D01*
X88010292Y-71878213D01*
X88010288Y-71878210D01*
X87879185Y-71790609D01*
X87879172Y-71790602D01*
X87733501Y-71730264D01*
X87733489Y-71730261D01*
X87578845Y-71699500D01*
X87578842Y-71699500D01*
X87449097Y-71699500D01*
X87382058Y-71679815D01*
X87336303Y-71627011D01*
X87326359Y-71557853D01*
X87355384Y-71494297D01*
X87361416Y-71487819D01*
X88514662Y-70334572D01*
X88575983Y-70301089D01*
X88578150Y-70300638D01*
X88636085Y-70289113D01*
X88733497Y-70269737D01*
X88879179Y-70209394D01*
X89010289Y-70121789D01*
X89121789Y-70010289D01*
X89209394Y-69879179D01*
X89269737Y-69733497D01*
X89300500Y-69578842D01*
X89300500Y-69421158D01*
X89300500Y-69421155D01*
X89300499Y-69421153D01*
X89272125Y-69278509D01*
X89269737Y-69266503D01*
X89246082Y-69209394D01*
X89209397Y-69120827D01*
X89209390Y-69120814D01*
X89121789Y-68989711D01*
X89121786Y-68989707D01*
X89010292Y-68878213D01*
X89010288Y-68878210D01*
X88879185Y-68790609D01*
X88879172Y-68790602D01*
X88733501Y-68730264D01*
X88733489Y-68730261D01*
X88578845Y-68699500D01*
X88578842Y-68699500D01*
X88421158Y-68699500D01*
X88421155Y-68699500D01*
X88266510Y-68730261D01*
X88266498Y-68730264D01*
X88120827Y-68790602D01*
X88120814Y-68790609D01*
X87989711Y-68878210D01*
X87989707Y-68878213D01*
X87878213Y-68989707D01*
X87878210Y-68989711D01*
X87790609Y-69120814D01*
X87790602Y-69120827D01*
X87730264Y-69266498D01*
X87730261Y-69266508D01*
X87699361Y-69421850D01*
X87666976Y-69483761D01*
X87665425Y-69485339D01*
X86462181Y-70688584D01*
X86400858Y-70722069D01*
X86331166Y-70717085D01*
X86275233Y-70675213D01*
X86250816Y-70609749D01*
X86250500Y-70600903D01*
X86250500Y-69345548D01*
X86270185Y-69278509D01*
X86322989Y-69232754D01*
X86327048Y-69230987D01*
X86379179Y-69209394D01*
X86510289Y-69121789D01*
X86621789Y-69010289D01*
X86709394Y-68879179D01*
X86769737Y-68733497D01*
X86800500Y-68578842D01*
X86800500Y-68421158D01*
X86800500Y-68421155D01*
X86800499Y-68421153D01*
X86769738Y-68266510D01*
X86769737Y-68266503D01*
X86769732Y-68266492D01*
X86767969Y-68260676D01*
X86770720Y-68259841D01*
X86764497Y-68202641D01*
X86795691Y-68140122D01*
X86855734Y-68104392D01*
X86886555Y-68100500D01*
X106699903Y-68100500D01*
X106766942Y-68120185D01*
X106787583Y-68136818D01*
X116706284Y-78055520D01*
X116706286Y-78055521D01*
X116706290Y-78055524D01*
X116776254Y-78095917D01*
X116843216Y-78134577D01*
X116995943Y-78175501D01*
X116995945Y-78175501D01*
X117161654Y-78175501D01*
X117161670Y-78175500D01*
X131499329Y-78175500D01*
X131566368Y-78195185D01*
X131597705Y-78224014D01*
X131672255Y-78321171D01*
X131685964Y-78339036D01*
X131803571Y-78429279D01*
X131940528Y-78486009D01*
X132050599Y-78500500D01*
X132249400Y-78500499D01*
X132249401Y-78500499D01*
X132266087Y-78498302D01*
X132359472Y-78486009D01*
X132359475Y-78486007D01*
X132367326Y-78483905D01*
X132368210Y-78487207D01*
X132421925Y-78481392D01*
X132426878Y-78482386D01*
X132437446Y-78484732D01*
X132440528Y-78486009D01*
X132447079Y-78486871D01*
X132452378Y-78488048D01*
X132478403Y-78502404D01*
X132505580Y-78514426D01*
X132508659Y-78519094D01*
X132513557Y-78521796D01*
X132527688Y-78547942D01*
X132544052Y-78572750D01*
X132545186Y-78580317D01*
X132546778Y-78583263D01*
X132546391Y-78588359D01*
X132549500Y-78609100D01*
X132549500Y-88165500D01*
X132529815Y-88232539D01*
X132477011Y-88278294D01*
X132425500Y-88289500D01*
X129689057Y-88289500D01*
X129530942Y-88289500D01*
X129378215Y-88330423D01*
X129378214Y-88330423D01*
X129378212Y-88330424D01*
X129378209Y-88330425D01*
X129328096Y-88359359D01*
X129328095Y-88359360D01*
X129312363Y-88368443D01*
X129241285Y-88409479D01*
X129241282Y-88409481D01*
X128997583Y-88653181D01*
X128936260Y-88686666D01*
X128909902Y-88689500D01*
X128795302Y-88689500D01*
X128759008Y-88692356D01*
X128759002Y-88692357D01*
X128603609Y-88737504D01*
X128603606Y-88737505D01*
X128464315Y-88819881D01*
X128464307Y-88819887D01*
X128421016Y-88863180D01*
X128359693Y-88896666D01*
X128333334Y-88899500D01*
X95420940Y-88899500D01*
X95380019Y-88910464D01*
X95380019Y-88910465D01*
X95342751Y-88920451D01*
X95268214Y-88940423D01*
X95268209Y-88940426D01*
X95131290Y-89019475D01*
X95131282Y-89019481D01*
X95019478Y-89131286D01*
X85007582Y-99143181D01*
X84946259Y-99176666D01*
X84919902Y-99179500D01*
X84800831Y-99179500D01*
X84800807Y-99179501D01*
X84764794Y-99182335D01*
X84610611Y-99227129D01*
X84610606Y-99227131D01*
X84472404Y-99308863D01*
X84472396Y-99308869D01*
X84358869Y-99422396D01*
X84358863Y-99422404D01*
X84277131Y-99560606D01*
X84277129Y-99560611D01*
X84232335Y-99714791D01*
X84232334Y-99714797D01*
X84229500Y-99750811D01*
X84229500Y-100249169D01*
X84229501Y-100249191D01*
X84232335Y-100285205D01*
X84277129Y-100439388D01*
X84277131Y-100439393D01*
X84358863Y-100577595D01*
X84358869Y-100577603D01*
X84472396Y-100691130D01*
X84472400Y-100691133D01*
X84472402Y-100691135D01*
X84610607Y-100772869D01*
X84651268Y-100784682D01*
X84764791Y-100817664D01*
X84764794Y-100817664D01*
X84764796Y-100817665D01*
X84800819Y-100820500D01*
X85199180Y-100820499D01*
X85235204Y-100817665D01*
X85251526Y-100812923D01*
X85255905Y-100811651D01*
X85325775Y-100811850D01*
X85384445Y-100849792D01*
X85413288Y-100913431D01*
X85414500Y-100930727D01*
X85414500Y-105312727D01*
X85394815Y-105379766D01*
X85378181Y-105400408D01*
X85351414Y-105427174D01*
X85351408Y-105427182D01*
X85268068Y-105568104D01*
X85268066Y-105568107D01*
X85222391Y-105725320D01*
X85222390Y-105725326D01*
X85219500Y-105762052D01*
X85219500Y-106237947D01*
X85222390Y-106274673D01*
X85222391Y-106274679D01*
X85268066Y-106431892D01*
X85268068Y-106431895D01*
X85351408Y-106572817D01*
X85351414Y-106572825D01*
X85467174Y-106688585D01*
X85467178Y-106688588D01*
X85467180Y-106688590D01*
X85608103Y-106771931D01*
X85608104Y-106771931D01*
X85608107Y-106771933D01*
X85765320Y-106817608D01*
X85765323Y-106817608D01*
X85765325Y-106817609D01*
X85802060Y-106820500D01*
X85802068Y-106820500D01*
X86227932Y-106820500D01*
X86227940Y-106820500D01*
X86264675Y-106817609D01*
X86264677Y-106817608D01*
X86264679Y-106817608D01*
X86421892Y-106771933D01*
X86421892Y-106771932D01*
X86421897Y-106771931D01*
X86437367Y-106762781D01*
X86505087Y-106745597D01*
X86563611Y-106762781D01*
X86578297Y-106771466D01*
X86578298Y-106771467D01*
X86735000Y-106816992D01*
X86735000Y-106816991D01*
X87235000Y-106816991D01*
X87391697Y-106771468D01*
X87532508Y-106688193D01*
X87532516Y-106688187D01*
X87648187Y-106572516D01*
X87648193Y-106572508D01*
X87731468Y-106431697D01*
X87731470Y-106431692D01*
X87777109Y-106274603D01*
X87777111Y-106274591D01*
X87779047Y-106250000D01*
X87235000Y-106250000D01*
X87235000Y-106816991D01*
X86735000Y-106816991D01*
X86735000Y-106511357D01*
X86752268Y-106448236D01*
X86761931Y-106431897D01*
X86761932Y-106431893D01*
X86761933Y-106431892D01*
X86807608Y-106274679D01*
X86807609Y-106274673D01*
X86807615Y-106274603D01*
X86810500Y-106237940D01*
X86810500Y-105762060D01*
X86807609Y-105725325D01*
X86807608Y-105725320D01*
X86761932Y-105568104D01*
X86752266Y-105551759D01*
X86735000Y-105488641D01*
X86735000Y-105192907D01*
X86717721Y-105183006D01*
X87235000Y-105183006D01*
X87235000Y-105750000D01*
X87779046Y-105750000D01*
X87777110Y-105725402D01*
X87731470Y-105568307D01*
X87731468Y-105568302D01*
X87648193Y-105427491D01*
X87648187Y-105427483D01*
X87532516Y-105311812D01*
X87532508Y-105311806D01*
X87391695Y-105228530D01*
X87391692Y-105228528D01*
X87235001Y-105183005D01*
X87235000Y-105183006D01*
X86717721Y-105183006D01*
X86677850Y-105160159D01*
X86663255Y-105144952D01*
X86645556Y-105133506D01*
X86639547Y-105120249D01*
X86629470Y-105109749D01*
X86625414Y-105089067D01*
X86616712Y-105069868D01*
X86615500Y-105052571D01*
X86615500Y-100674595D01*
X86635185Y-100607556D01*
X86651822Y-100586911D01*
X86661131Y-100577602D01*
X86661135Y-100577598D01*
X86742869Y-100439393D01*
X86787665Y-100285204D01*
X86790500Y-100249181D01*
X86790499Y-99750820D01*
X86787665Y-99714796D01*
X86742869Y-99560607D01*
X86661135Y-99422402D01*
X86661133Y-99422400D01*
X86661130Y-99422396D01*
X86631665Y-99392931D01*
X86598180Y-99331608D01*
X86603164Y-99261916D01*
X86631665Y-99217569D01*
X95712416Y-90136819D01*
X95773739Y-90103334D01*
X95800097Y-90100500D01*
X128333334Y-90100500D01*
X128400373Y-90120185D01*
X128421016Y-90136820D01*
X128464307Y-90180112D01*
X128464311Y-90180115D01*
X128464313Y-90180117D01*
X128603605Y-90262494D01*
X128644587Y-90274400D01*
X128759002Y-90307642D01*
X128759005Y-90307642D01*
X128759007Y-90307643D01*
X128795310Y-90310500D01*
X128795318Y-90310500D01*
X129204682Y-90310500D01*
X129204690Y-90310500D01*
X129240993Y-90307643D01*
X129240995Y-90307642D01*
X129240997Y-90307642D01*
X129307898Y-90288205D01*
X129396395Y-90262494D01*
X129417369Y-90250089D01*
X129485088Y-90232906D01*
X129543613Y-90250090D01*
X129563803Y-90262031D01*
X129710000Y-90304504D01*
X129710000Y-90304503D01*
X130210000Y-90304503D01*
X130356195Y-90262031D01*
X130495374Y-90179721D01*
X130495383Y-90179714D01*
X130609714Y-90065383D01*
X130609721Y-90065374D01*
X130692031Y-89926195D01*
X130692033Y-89926190D01*
X130737144Y-89770918D01*
X130737145Y-89770912D01*
X130738790Y-89750000D01*
X130210000Y-89750000D01*
X130210000Y-90304503D01*
X129710000Y-90304503D01*
X129710000Y-89998352D01*
X129727267Y-89935233D01*
X129732494Y-89926395D01*
X129777643Y-89770993D01*
X129780500Y-89734690D01*
X129780500Y-89624000D01*
X129800185Y-89556961D01*
X129852989Y-89511206D01*
X129904500Y-89500000D01*
X129982296Y-89500000D01*
X129994504Y-89493334D01*
X130020862Y-89490500D01*
X132629902Y-89490500D01*
X132659342Y-89499144D01*
X132689329Y-89505668D01*
X132694344Y-89509422D01*
X132696941Y-89510185D01*
X132717583Y-89526819D01*
X132723181Y-89532417D01*
X132756666Y-89593740D01*
X132759500Y-89620098D01*
X132759500Y-89734697D01*
X132762356Y-89770991D01*
X132762357Y-89770997D01*
X132807504Y-89926390D01*
X132807505Y-89926393D01*
X132889881Y-90065684D01*
X132889887Y-90065692D01*
X133004307Y-90180112D01*
X133004311Y-90180115D01*
X133004313Y-90180117D01*
X133143605Y-90262494D01*
X133184587Y-90274400D01*
X133299002Y-90307642D01*
X133299005Y-90307642D01*
X133299007Y-90307643D01*
X133335310Y-90310500D01*
X133335318Y-90310500D01*
X133744682Y-90310500D01*
X133744690Y-90310500D01*
X133780993Y-90307643D01*
X133780995Y-90307642D01*
X133780997Y-90307642D01*
X133847898Y-90288205D01*
X133936395Y-90262494D01*
X133957369Y-90250089D01*
X134025088Y-90232906D01*
X134083613Y-90250090D01*
X134103803Y-90262031D01*
X134250000Y-90304504D01*
X134250000Y-90304503D01*
X134750000Y-90304503D01*
X134896195Y-90262031D01*
X135035374Y-90179721D01*
X135035383Y-90179714D01*
X135149714Y-90065383D01*
X135149721Y-90065374D01*
X135232031Y-89926195D01*
X135232033Y-89926190D01*
X135277144Y-89770918D01*
X135277145Y-89770912D01*
X135278790Y-89750000D01*
X134750000Y-89750000D01*
X134750000Y-90304503D01*
X134250000Y-90304503D01*
X134250000Y-89998352D01*
X134267267Y-89935233D01*
X134272494Y-89926395D01*
X134317643Y-89770993D01*
X134320500Y-89734690D01*
X134320500Y-89265310D01*
X134317643Y-89229007D01*
X134272494Y-89073605D01*
X134272493Y-89073604D01*
X134272492Y-89073600D01*
X134267266Y-89064763D01*
X134250000Y-89001645D01*
X134250000Y-88695494D01*
X134750000Y-88695494D01*
X134750000Y-89250000D01*
X135278790Y-89250000D01*
X135277145Y-89229089D01*
X135232031Y-89073804D01*
X135149721Y-88934625D01*
X135149714Y-88934616D01*
X135035383Y-88820285D01*
X135035374Y-88820278D01*
X134896193Y-88737967D01*
X134896190Y-88737965D01*
X134750001Y-88695493D01*
X134750000Y-88695494D01*
X134250000Y-88695494D01*
X134249998Y-88695493D01*
X134103809Y-88737965D01*
X134103806Y-88737967D01*
X134083608Y-88749912D01*
X134015884Y-88767092D01*
X133978329Y-88759790D01*
X133967384Y-88755832D01*
X133936395Y-88737506D01*
X133836092Y-88708365D01*
X133832339Y-88707008D01*
X133807244Y-88688614D01*
X133781019Y-88671866D01*
X133779300Y-88668132D01*
X133775987Y-88665703D01*
X133764819Y-88636660D01*
X133751813Y-88608393D01*
X133751312Y-88601532D01*
X133750911Y-88600488D01*
X133751151Y-88599326D01*
X133750500Y-88590396D01*
X133750500Y-79829168D01*
X133770185Y-79762129D01*
X133822989Y-79716374D01*
X133892147Y-79706430D01*
X133955703Y-79735455D01*
X133962177Y-79741483D01*
X134701213Y-80480520D01*
X134701215Y-80480521D01*
X134701219Y-80480524D01*
X134838138Y-80559573D01*
X134838145Y-80559577D01*
X134990872Y-80600501D01*
X134990874Y-80600501D01*
X135156583Y-80600501D01*
X135156599Y-80600500D01*
X145300903Y-80600500D01*
X145367942Y-80620185D01*
X145413697Y-80672989D01*
X145423641Y-80742147D01*
X145394616Y-80805703D01*
X145388584Y-80812181D01*
X137960861Y-88239902D01*
X137899538Y-88273387D01*
X137860582Y-88275579D01*
X137850028Y-88274501D01*
X137850012Y-88274500D01*
X137850009Y-88274500D01*
X137850004Y-88274500D01*
X137249998Y-88274500D01*
X137249980Y-88274501D01*
X137147203Y-88285000D01*
X137147200Y-88285001D01*
X136980668Y-88340185D01*
X136980663Y-88340187D01*
X136831342Y-88432289D01*
X136707289Y-88556342D01*
X136615187Y-88705663D01*
X136615185Y-88705668D01*
X136604635Y-88737506D01*
X136560001Y-88872203D01*
X136560001Y-88872204D01*
X136560000Y-88872204D01*
X136549500Y-88974983D01*
X136549500Y-90025001D01*
X136549501Y-90025019D01*
X136560000Y-90127796D01*
X136560001Y-90127799D01*
X136615185Y-90294331D01*
X136615187Y-90294336D01*
X136635837Y-90327815D01*
X136707288Y-90443656D01*
X136831344Y-90567712D01*
X136980666Y-90659814D01*
X137147203Y-90714999D01*
X137249991Y-90725500D01*
X137850008Y-90725499D01*
X137850016Y-90725498D01*
X137850019Y-90725498D01*
X137906302Y-90719748D01*
X137952797Y-90714999D01*
X138119334Y-90659814D01*
X138268656Y-90567712D01*
X138392712Y-90443656D01*
X138394752Y-90440347D01*
X138396745Y-90438555D01*
X138397193Y-90437989D01*
X138397289Y-90438065D01*
X138446694Y-90393623D01*
X138515656Y-90382395D01*
X138579740Y-90410234D01*
X138605829Y-90440339D01*
X138607681Y-90443341D01*
X138607683Y-90443344D01*
X138731654Y-90567315D01*
X138880875Y-90659356D01*
X138880880Y-90659358D01*
X139047302Y-90714505D01*
X139047309Y-90714506D01*
X139150019Y-90724999D01*
X139700000Y-90724999D01*
X139749972Y-90724999D01*
X139749986Y-90724998D01*
X139852697Y-90714505D01*
X140019119Y-90659358D01*
X140019124Y-90659356D01*
X140168345Y-90567315D01*
X140292315Y-90443345D01*
X140384356Y-90294124D01*
X140384358Y-90294119D01*
X140439505Y-90127697D01*
X140439506Y-90127690D01*
X140449999Y-90024986D01*
X140450000Y-90024973D01*
X140450000Y-89750000D01*
X139700000Y-89750000D01*
X139700000Y-90724999D01*
X139150019Y-90724999D01*
X139199999Y-90724998D01*
X139200000Y-90724998D01*
X139200000Y-89624000D01*
X139219685Y-89556961D01*
X139272489Y-89511206D01*
X139324000Y-89500000D01*
X139450000Y-89500000D01*
X139450000Y-89374000D01*
X139469685Y-89306961D01*
X139522489Y-89261206D01*
X139574000Y-89250000D01*
X140449999Y-89250000D01*
X140449999Y-88975028D01*
X140449998Y-88975013D01*
X140439505Y-88872302D01*
X140384358Y-88705880D01*
X140384356Y-88705875D01*
X140292315Y-88556654D01*
X140168345Y-88432684D01*
X140019124Y-88340643D01*
X140019119Y-88340641D01*
X139864042Y-88289254D01*
X139806597Y-88249481D01*
X139779774Y-88184966D01*
X139792089Y-88116190D01*
X139815359Y-88083874D01*
X147262416Y-80636819D01*
X147323739Y-80603334D01*
X147350097Y-80600500D01*
X164810405Y-80600500D01*
X164877444Y-80620185D01*
X164898081Y-80636814D01*
X164952402Y-80691135D01*
X165090607Y-80772869D01*
X165123516Y-80782430D01*
X165244791Y-80817664D01*
X165244794Y-80817664D01*
X165244796Y-80817665D01*
X165280819Y-80820500D01*
X165399902Y-80820499D01*
X165466941Y-80840183D01*
X165487583Y-80856818D01*
X166995139Y-82364374D01*
X166995149Y-82364385D01*
X166999479Y-82368715D01*
X166999480Y-82368716D01*
X167111284Y-82480520D01*
X167176917Y-82518412D01*
X167198095Y-82530639D01*
X167198097Y-82530641D01*
X167236151Y-82552611D01*
X167248215Y-82559577D01*
X167400943Y-82600500D01*
X167559057Y-82600500D01*
X172214281Y-82600500D01*
X172281320Y-82620185D01*
X172324765Y-82668205D01*
X172344947Y-82707814D01*
X172344948Y-82707815D01*
X172469890Y-82879786D01*
X172620213Y-83030109D01*
X172792182Y-83155050D01*
X172800946Y-83159516D01*
X172851742Y-83207491D01*
X172868536Y-83275312D01*
X172845998Y-83341447D01*
X172800946Y-83380484D01*
X172792182Y-83384949D01*
X172620213Y-83509890D01*
X172469890Y-83660213D01*
X172344951Y-83832179D01*
X172248444Y-84021585D01*
X172182753Y-84223760D01*
X172149500Y-84433713D01*
X172149500Y-84646286D01*
X172182753Y-84856239D01*
X172248444Y-85058414D01*
X172344951Y-85247820D01*
X172469890Y-85419786D01*
X172620213Y-85570109D01*
X172792182Y-85695050D01*
X172800946Y-85699516D01*
X172851742Y-85747491D01*
X172868536Y-85815312D01*
X172845998Y-85881447D01*
X172800946Y-85920484D01*
X172792182Y-85924949D01*
X172620213Y-86049890D01*
X172469890Y-86200213D01*
X172344951Y-86372179D01*
X172248444Y-86561585D01*
X172182753Y-86763760D01*
X172149500Y-86973713D01*
X172149500Y-87186287D01*
X172182754Y-87396243D01*
X172235824Y-87559576D01*
X172248444Y-87598414D01*
X172344951Y-87787820D01*
X172469890Y-87959786D01*
X172620213Y-88110109D01*
X172792182Y-88235050D01*
X172800946Y-88239516D01*
X172851742Y-88287491D01*
X172868536Y-88355312D01*
X172845998Y-88421447D01*
X172800946Y-88460484D01*
X172792182Y-88464949D01*
X172620213Y-88589890D01*
X172469890Y-88740213D01*
X172344951Y-88912179D01*
X172248444Y-89101585D01*
X172248443Y-89101587D01*
X172248443Y-89101588D01*
X172215598Y-89202672D01*
X172182753Y-89303760D01*
X172151672Y-89500000D01*
X172149500Y-89513713D01*
X172149500Y-89726287D01*
X172156581Y-89770993D01*
X172182593Y-89935230D01*
X172182754Y-89936243D01*
X172247925Y-90136819D01*
X172248444Y-90138414D01*
X172344951Y-90327820D01*
X172469890Y-90499786D01*
X172620213Y-90650109D01*
X172792179Y-90775048D01*
X172792181Y-90775049D01*
X172792184Y-90775051D01*
X172981588Y-90871557D01*
X173183757Y-90937246D01*
X173393713Y-90970500D01*
X173393714Y-90970500D01*
X173606286Y-90970500D01*
X173606287Y-90970500D01*
X173816243Y-90937246D01*
X174018412Y-90871557D01*
X174207816Y-90775051D01*
X174276019Y-90725499D01*
X174379786Y-90650109D01*
X174379788Y-90650106D01*
X174379792Y-90650104D01*
X174530104Y-90499792D01*
X174530106Y-90499788D01*
X174530109Y-90499786D01*
X174615397Y-90382395D01*
X174655051Y-90327816D01*
X174663874Y-90310500D01*
X174675235Y-90288205D01*
X174723209Y-90237409D01*
X174785719Y-90220500D01*
X191319903Y-90220500D01*
X191349343Y-90229144D01*
X191379330Y-90235668D01*
X191384345Y-90239422D01*
X191386942Y-90240185D01*
X191407584Y-90256819D01*
X191515139Y-90364374D01*
X191515149Y-90364385D01*
X191519479Y-90368715D01*
X191519480Y-90368716D01*
X191631284Y-90480520D01*
X191718095Y-90530639D01*
X191718097Y-90530641D01*
X191756151Y-90552611D01*
X191768215Y-90559577D01*
X191920943Y-90600500D01*
X191920945Y-90600500D01*
X192079055Y-90600500D01*
X192079057Y-90600500D01*
X192231785Y-90559577D01*
X192281904Y-90530639D01*
X192368716Y-90480520D01*
X192480520Y-90368716D01*
X192544567Y-90257782D01*
X192559577Y-90231785D01*
X192600500Y-90079057D01*
X192600500Y-89920943D01*
X192600500Y-60420943D01*
X192559577Y-60268216D01*
X192559573Y-60268209D01*
X192480524Y-60131290D01*
X192480518Y-60131282D01*
X192368717Y-60019481D01*
X192368709Y-60019475D01*
X192231790Y-59940426D01*
X192231786Y-59940424D01*
X192231784Y-59940423D01*
X192079057Y-59899500D01*
X133579057Y-59899500D01*
X133420943Y-59899500D01*
X133268215Y-59940423D01*
X133268214Y-59940423D01*
X133268212Y-59940424D01*
X133268209Y-59940425D01*
X133218096Y-59969359D01*
X133218095Y-59969360D01*
X133174689Y-59994420D01*
X133131285Y-60019479D01*
X133131282Y-60019481D01*
X133019478Y-60131286D01*
X124131284Y-69019481D01*
X124019483Y-69131281D01*
X124019481Y-69131284D01*
X123940423Y-69268214D01*
X123926781Y-69319124D01*
X123899499Y-69420943D01*
X123899499Y-69420945D01*
X123899499Y-69579054D01*
X123899498Y-69579054D01*
X123940423Y-69731785D01*
X124019481Y-69868716D01*
X124019483Y-69868718D01*
X128988583Y-74837819D01*
X129022068Y-74899142D01*
X129017084Y-74968834D01*
X128975212Y-75024767D01*
X128909748Y-75049184D01*
X128900902Y-75049500D01*
X117995685Y-75049500D01*
X117928646Y-75029815D01*
X117908004Y-75013181D01*
X116684648Y-73789825D01*
X116684646Y-73789822D01*
X116565775Y-73670951D01*
X116565774Y-73670950D01*
X116478962Y-73620830D01*
X116478962Y-73620829D01*
X116478958Y-73620828D01*
X116428843Y-73591893D01*
X116276115Y-73550969D01*
X116118001Y-73550969D01*
X116110405Y-73550969D01*
X116110389Y-73550970D01*
X115928296Y-73550970D01*
X115861257Y-73531285D01*
X115859405Y-73530072D01*
X115727715Y-73442079D01*
X115727702Y-73442072D01*
X115582031Y-73381734D01*
X115582019Y-73381731D01*
X115427375Y-73350970D01*
X115427372Y-73350970D01*
X115269688Y-73350970D01*
X115269685Y-73350970D01*
X115115040Y-73381731D01*
X115115028Y-73381734D01*
X114969357Y-73442072D01*
X114969344Y-73442079D01*
X114838241Y-73529680D01*
X114838237Y-73529683D01*
X114726743Y-73641177D01*
X114726740Y-73641181D01*
X114639139Y-73772284D01*
X114639132Y-73772297D01*
X114578794Y-73917968D01*
X114578792Y-73917974D01*
X114572355Y-73950335D01*
X114539968Y-74012245D01*
X114479251Y-74046817D01*
X114409482Y-74043076D01*
X114363057Y-74013821D01*
X107487590Y-67138355D01*
X107487588Y-67138352D01*
X107368717Y-67019481D01*
X107368716Y-67019480D01*
X107281904Y-66969360D01*
X107281904Y-66969359D01*
X107281900Y-66969358D01*
X107231785Y-66940423D01*
X107079057Y-66899499D01*
X106920943Y-66899499D01*
X106913347Y-66899499D01*
X106913331Y-66899500D01*
X84920943Y-66899500D01*
X84768216Y-66940423D01*
X84768209Y-66940426D01*
X84631290Y-67019475D01*
X84631282Y-67019481D01*
X84519481Y-67131282D01*
X84519475Y-67131290D01*
X84440426Y-67268209D01*
X84440423Y-67268216D01*
X84399500Y-67420943D01*
X84399500Y-75445356D01*
X84379815Y-75512395D01*
X84327011Y-75558150D01*
X84257853Y-75568094D01*
X84239512Y-75564019D01*
X84234394Y-75562467D01*
X84050000Y-75525788D01*
X84050000Y-76243763D01*
X84004701Y-76225000D01*
X83595299Y-76225000D01*
X83550000Y-76243763D01*
X83550000Y-75525789D01*
X83549999Y-75525788D01*
X83365610Y-75562466D01*
X83365602Y-75562468D01*
X83188166Y-75635964D01*
X83188157Y-75635969D01*
X83028473Y-75742667D01*
X83028469Y-75742670D01*
X82892670Y-75878469D01*
X82892667Y-75878473D01*
X82785969Y-76038157D01*
X82785964Y-76038166D01*
X82712468Y-76215602D01*
X82712466Y-76215610D01*
X82705626Y-76250000D01*
X70077762Y-76250000D01*
X70077762Y-57139273D01*
X70097447Y-57072234D01*
X70150251Y-57026479D01*
X70201762Y-57015273D01*
X194449583Y-57015273D01*
X194516622Y-57034958D01*
G37*
%TD.AperFunction*%
%TD*%
M02*
