M48
; DRILL file KiCad 10.0.3 date 2026-06-16T19:49:02
; FORMAT={-:-/ absolute / metric / decimal}
; #@! TF.CreationDate,2026-06-16T19:49:02-04:00
; #@! TF.GenerationSoftware,Kicad,Pcbnew,10.0.3
; #@! TF.FileFunction,Plated,1,2,PTH
FMAT,2
METRIC
; #@! TA.AperFunction,Plated,PTH,ViaDrill
T1C0.300
; #@! TA.AperFunction,Plated,PTH,ComponentDrill
T2C0.500
; #@! TA.AperFunction,Plated,PTH,ComponentDrill
T3C0.550
; #@! TA.AperFunction,Plated,PTH,ComponentDrill
T4C1.000
%
G90
G05
T1
X86.0Y-68.5
X87.5Y-72.5
X88.5Y-69.5
X115.349Y-74.151
X116.789Y-75.592
X116.924Y-76.576
X133.0Y-64.5
X144.0Y-64.5
T4
X173.5Y-76.92
X173.5Y-79.46
X173.5Y-82.0
X173.5Y-84.54
X173.5Y-87.08
X173.5Y-89.62
T2
G00X82.8Y-78.875
M15
G01X82.8Y-79.525
M16
G05
G00X89.8Y-78.875
M15
G01X89.8Y-79.525
M16
G05
T3
G00X83.65Y-76.5
M15
G01X83.95Y-76.5
M16
G05
G00X88.65Y-76.5
M15
G01X88.95Y-76.5
M16
G05
M30
